<svg xmlns="http://www.w3.org/2000/svg" xmlns:xlink="http://www.w3.org/1999/xlink" width="312" zoomAndPan="magnify" viewBox="0 0 234 225" height="300" preserveAspectRatio="xMidYMid meet" version="1.0"><path fill="#a59fee" d="M 233.59375 112.050781 C 233.59375 113.878906 233.546875 115.707031 233.453125 117.53125 C 233.359375 119.359375 233.21875 121.179688 233.035156 123 C 232.847656 124.820312 232.613281 126.632812 232.332031 128.441406 C 232.050781 130.25 231.726562 132.050781 231.351562 133.84375 C 230.980469 135.636719 230.5625 137.421875 230.097656 139.195312 C 229.632812 140.96875 229.125 142.726562 228.570312 144.476562 C 228.015625 146.226562 227.417969 147.960938 226.773438 149.683594 C 226.128906 151.40625 225.441406 153.109375 224.710938 154.800781 C 223.980469 156.488281 223.207031 158.160156 222.390625 159.8125 C 221.574219 161.464844 220.714844 163.097656 219.8125 164.710938 C 218.914062 166.324219 217.972656 167.914062 216.992188 169.480469 C 216.007812 171.046875 214.988281 172.59375 213.925781 174.113281 C 212.863281 175.632812 211.765625 177.128906 210.628906 178.597656 C 209.488281 180.0625 208.316406 181.503906 207.101562 182.917969 C 205.890625 184.332031 204.644531 185.714844 203.359375 187.070312 C 202.078125 188.425781 200.761719 189.75 199.410156 191.042969 C 198.058594 192.332031 196.675781 193.59375 195.261719 194.820312 C 193.847656 196.050781 192.402344 197.242188 190.925781 198.402344 C 189.449219 199.5625 187.941406 200.6875 186.410156 201.777344 C 184.875 202.867188 183.3125 203.917969 181.726562 204.933594 C 180.136719 205.949219 178.523438 206.925781 176.886719 207.867188 C 175.246094 208.808594 173.585938 209.707031 171.902344 210.570312 C 170.214844 211.429688 168.511719 212.253906 166.785156 213.035156 C 165.058594 213.816406 163.3125 214.558594 161.546875 215.257812 C 159.78125 215.957031 158 216.613281 156.203125 217.230469 C 154.402344 217.847656 152.589844 218.417969 150.761719 218.949219 C 148.933594 219.480469 147.09375 219.96875 145.242188 220.414062 C 143.390625 220.855469 141.527344 221.257812 139.652344 221.613281 C 137.777344 221.96875 135.898438 222.28125 134.007812 222.550781 C 132.117188 222.820312 130.222656 223.042969 128.324219 223.222656 C 126.421875 223.402344 124.515625 223.535156 122.609375 223.625 C 120.703125 223.714844 118.792969 223.761719 116.882812 223.761719 C 114.972656 223.761719 113.0625 223.714844 111.15625 223.625 C 109.25 223.535156 107.34375 223.402344 105.441406 223.222656 C 103.542969 223.042969 101.648438 222.820312 99.757812 222.550781 C 97.867188 222.28125 95.988281 221.96875 94.113281 221.613281 C 92.238281 221.257812 90.375 220.855469 88.523438 220.414062 C 86.671875 219.96875 84.832031 219.480469 83.003906 218.949219 C 81.175781 218.417969 79.363281 217.847656 77.5625 217.230469 C 75.765625 216.613281 73.984375 215.957031 72.21875 215.257812 C 70.453125 214.558594 68.707031 213.816406 66.980469 213.035156 C 65.253906 212.253906 63.550781 211.429688 61.863281 210.570312 C 60.179688 209.707031 58.519531 208.808594 56.878906 207.867188 C 55.242188 206.925781 53.628906 205.949219 52.039062 204.933594 C 50.453125 203.917969 48.890625 202.867188 47.355469 201.777344 C 45.824219 200.6875 44.316406 199.5625 42.839844 198.402344 C 41.363281 197.242188 39.917969 196.050781 38.503906 194.820312 C 37.089844 193.59375 35.707031 192.332031 34.355469 191.042969 C 33.003906 189.75 31.6875 188.425781 30.40625 187.070312 C 29.121094 185.714844 27.875 184.332031 26.664062 182.917969 C 25.449219 181.503906 24.277344 180.0625 23.136719 178.597656 C 22 177.128906 20.902344 175.632812 19.839844 174.113281 C 18.777344 172.59375 17.757812 171.046875 16.773438 169.480469 C 15.792969 167.914062 14.851562 166.324219 13.953125 164.710938 C 13.050781 163.097656 12.191406 161.464844 11.375 159.8125 C 10.558594 158.160156 9.785156 156.488281 9.054688 154.800781 C 8.324219 153.109375 7.636719 151.40625 6.992188 149.683594 C 6.347656 147.960938 5.75 146.226562 5.195312 144.476562 C 4.640625 142.726562 4.132812 140.96875 3.667969 139.195312 C 3.203125 137.421875 2.785156 135.636719 2.414062 133.84375 C 2.039062 132.050781 1.714844 130.25 1.433594 128.441406 C 1.152344 126.632812 0.917969 124.820312 0.730469 123 C 0.546875 121.179688 0.40625 119.359375 0.3125 117.53125 C 0.21875 115.707031 0.171875 113.878906 0.171875 112.050781 C 0.171875 110.222656 0.21875 108.394531 0.3125 106.570312 C 0.40625 104.742188 0.546875 102.921875 0.730469 101.101562 C 0.917969 99.28125 1.152344 97.46875 1.433594 95.660156 C 1.714844 93.851562 2.039062 92.050781 2.414062 90.257812 C 2.785156 88.464844 3.203125 86.679688 3.667969 84.90625 C 4.132812 83.132812 4.640625 81.371094 5.195312 79.621094 C 5.75 77.871094 6.347656 76.136719 6.992188 74.417969 C 7.636719 72.695312 8.324219 70.988281 9.054688 69.300781 C 9.785156 67.613281 10.558594 65.941406 11.375 64.289062 C 12.191406 62.636719 13.050781 61.003906 13.953125 59.390625 C 14.851562 57.777344 15.792969 56.1875 16.773438 54.621094 C 17.757812 53.050781 18.777344 51.507812 19.839844 49.988281 C 20.902344 48.46875 22 46.972656 23.136719 45.503906 C 24.277344 44.035156 25.449219 42.59375 26.664062 41.183594 C 27.875 39.769531 29.121094 38.386719 30.40625 37.03125 C 31.6875 35.675781 33.003906 34.351562 34.355469 33.058594 C 35.707031 31.765625 37.089844 30.507812 38.503906 29.277344 C 39.917969 28.050781 41.363281 26.855469 42.839844 25.695312 C 44.316406 24.539062 45.824219 23.414062 47.355469 22.324219 C 48.890625 21.234375 50.453125 20.183594 52.039062 19.167969 C 53.628906 18.152344 55.242188 17.171875 56.878906 16.234375 C 58.519531 15.292969 60.179688 14.390625 61.863281 13.53125 C 63.550781 12.667969 65.253906 11.847656 66.980469 11.066406 C 68.707031 10.285156 70.453125 9.542969 72.21875 8.84375 C 73.984375 8.144531 75.765625 7.484375 77.5625 6.871094 C 79.363281 6.253906 81.175781 5.679688 83.003906 5.148438 C 84.832031 4.621094 86.671875 4.132812 88.523438 3.6875 C 90.375 3.242188 92.238281 2.84375 94.113281 2.488281 C 95.988281 2.128906 97.867188 1.816406 99.757812 1.550781 C 101.648438 1.28125 103.542969 1.058594 105.441406 0.878906 C 107.34375 0.699219 109.25 0.5625 111.15625 0.476562 C 113.0625 0.386719 114.972656 0.339844 116.882812 0.339844 C 118.792969 0.339844 120.703125 0.386719 122.609375 0.476562 C 124.515625 0.5625 126.421875 0.699219 128.324219 0.878906 C 130.222656 1.058594 132.117188 1.28125 134.007812 1.550781 C 135.898438 1.816406 137.777344 2.128906 139.652344 2.488281 C 141.527344 2.84375 143.390625 3.242188 145.242188 3.6875 C 147.09375 4.132812 148.933594 4.621094 150.761719 5.148438 C 152.589844 5.679688 154.402344 6.253906 156.203125 6.871094 C 158 7.484375 159.78125 8.144531 161.546875 8.84375 C 163.3125 9.542969 165.058594 10.285156 166.785156 11.066406 C 168.511719 11.847656 170.214844 12.667969 171.902344 13.53125 C 173.585938 14.390625 175.246094 15.292969 176.886719 16.234375 C 178.523438 17.171875 180.136719 18.152344 181.726562 19.167969 C 183.3125 20.183594 184.875 21.234375 186.410156 22.324219 C 187.941406 23.414062 189.449219 24.539062 190.925781 25.695312 C 192.402344 26.855469 193.847656 28.050781 195.261719 29.277344 C 196.675781 30.507812 198.058594 31.765625 199.410156 33.058594 C 200.761719 34.351562 202.078125 35.675781 203.359375 37.03125 C 204.644531 38.386719 205.890625 39.769531 207.101562 41.183594 C 208.316406 42.59375 209.488281 44.035156 210.628906 45.503906 C 211.765625 46.972656 212.863281 48.46875 213.925781 49.988281 C 214.988281 51.507812 216.007812 53.050781 216.992188 54.621094 C 217.972656 56.1875 218.914062 57.777344 219.8125 59.390625 C 220.714844 61.003906 221.574219 62.636719 222.390625 64.289062 C 223.207031 65.941406 223.980469 67.613281 224.710938 69.300781 C 225.441406 70.988281 226.128906 72.695312 226.773438 74.417969 C 227.417969 76.136719 228.015625 77.871094 228.570312 79.621094 C 229.125 81.371094 229.632812 83.132812 230.097656 84.90625 C 230.5625 86.679688 230.980469 88.464844 231.351562 90.257812 C 231.726562 92.050781 232.050781 93.851562 232.332031 95.660156 C 232.613281 97.46875 232.847656 99.28125 233.035156 101.101562 C 233.21875 102.921875 233.359375 104.742188 233.453125 106.570312 C 233.546875 108.394531 233.59375 110.222656 233.59375 112.050781 Z M 233.59375 112.050781 " fill-opacity="1" fill-rule="nonzero"/><path fill="#6158dc" d="M 116.882812 112.050781 C 116.882812 112.050781 146.820312 50.605469 121.65625 0.4375 C 121.65625 0.4375 88.195312 -3.378906 63.875 12.507812 C 63.875 12.507812 108.269531 54.730469 116.882812 112.050781 Z M 116.882812 112.050781 " fill-opacity="1" fill-rule="nonzero"/><path fill="#6158dc" d="M 116.804688 112.46875 C 116.804688 112.46875 72.605469 57.496094 16.539062 54.960938 C 16.539062 54.960938 -1.78125 86.28125 0.214844 115.253906 C 0.214844 115.253906 62.578125 91.996094 116.804688 112.46875 Z M 116.804688 112.46875 " fill-opacity="1" fill-rule="nonzero"/><path fill="#6158dc" d="M 116.882812 112.050781 C 116.882812 112.050781 46.410156 113.058594 12.996094 158.160156 C 12.996094 158.160156 22.789062 187.65625 47.933594 202.191406 C 47.933594 202.191406 69.613281 145.609375 116.882812 112.050781 Z M 116.882812 112.050781 " fill-opacity="1" fill-rule="nonzero"/><path fill="#6158dc" d="M 116.882812 112.050781 C 116.882812 112.050781 147.050781 176.183594 201.757812 188.722656 C 201.757812 188.722656 225.171875 172.550781 231.238281 134.472656 C 231.238281 134.472656 166.566406 141.898438 116.882812 112.050781 Z M 116.882812 112.050781 " fill-opacity="1" fill-rule="nonzero"/><path fill="#6158dc" d="M 116.804688 112.46875 C 116.804688 112.46875 188.550781 121.066406 229.503906 82.683594 C 229.503906 82.683594 224.742188 53.832031 195.804688 29.761719 C 195.804688 29.761719 169.320312 87.914062 116.804688 112.46875 Z M 116.804688 112.46875 " fill-opacity="1" fill-rule="nonzero"/><path fill="#6158dc" d="M 116.882812 112.050781 C 116.882812 112.050781 81.746094 171.792969 102.949219 223.761719 C 102.949219 223.761719 134.554688 229.828125 160.027344 215.871094 C 160.027344 215.871094 121.03125 169.863281 116.882812 112.050781 Z M 116.882812 112.050781 " fill-opacity="1" fill-rule="nonzero"/></svg>